<svg xmlns="http://www.w3.org/2000/svg" version="1.1" xmlns:xlink="http://www.w3.org/1999/xlink" xmlns:svgjs="http://svgjs.dev/svgjs" width="2000" height="2000" viewBox="0 0 2000 2000"><g transform="matrix(1,0,0,1,-0.28443113772425477,-0.28443113772459583)"><svg viewBox="0 0 334 334" data-background-color="#051726" preserveAspectRatio="xMidYMid meet" height="2000" width="2000" xmlns="http://www.w3.org/2000/svg" xmlns:xlink="http://www.w3.org/1999/xlink"><g id="tight-bounds" transform="matrix(1,0,0,1,0.04749999999998522,0.04750000000001364)"><svg viewBox="0 0 333.90454557049503 333.90454557049503" height="333.90454557049503" width="333.90454557049503"><g><svg></svg></g><g><svg viewBox="0 0 333.90454557049503 333.90454557049503" height="333.90454557049503" width="333.90454557049503"><g><path d="M0 166.952c0-92.205 74.747-166.952 166.952-166.952 92.205 0 166.952 74.747 166.953 166.952 0 92.205-74.747 166.952-166.953 166.953-92.205 0-166.952-74.747-166.952-166.953zM166.952 316.63c82.665 0 149.677-67.013 149.678-149.678 0-82.665-67.013-149.677-149.678-149.677-82.665 0-149.677 67.013-149.677 149.677 0 82.665 67.013 149.677 149.677 149.678z" data-fill-palette-color="tertiary" fill="#000000" stroke="transparent"></path><ellipse rx="160.27418187383762" ry="160.27418187383762" cx="166.95227278524752" cy="166.95227278524752" fill="#000000" stroke="transparent" stroke-width="0" fill-opacity="1" data-fill-palette-color="tertiary"></ellipse></g><g transform="matrix(1,0,0,1,109.56790616582418,71.17305217166896)"><svg viewBox="0 0 114.76873323884666 191.55844122715712" height="191.55844122715712" width="114.76873323884666"><g><svg viewBox="0 0 114.76873323884666 191.55844122715712" height="191.55844122715712" width="114.76873323884666"><g><svg viewBox="0 0 114.76873323884666 191.55844122715712" height="191.55844122715712" width="114.76873323884666"><g id="textblocktransform"><svg viewBox="0 0 114.76873323884666 191.55844122715712" height="191.55844122715712" width="114.76873323884666" id="textblock"><g><svg viewBox="0 0 114.76873323884666 191.55844122715712" height="191.55844122715712" width="114.76873323884666"><g transform="matrix(1,0,0,1,0,0)"><svg width="114.76873323884666" viewBox="3 -34.55 20.7 34.55" height="191.55844122715712" data-palette-color="#051726"><path d="M10.9-34.55Q17.15-34.55 20.43-31.78 23.7-29 23.7-23.6L23.7-23.6Q23.7-17.85 20.48-15 17.25-12.15 11.35-12.15L11.35-12.15 9.35-12.15 9.35 0 3 0 3-34.55 10.9-34.55ZM11-16.9Q14.25-16.9 15.7-18.4 17.15-19.9 17.15-23.55L17.15-23.55Q17.15-26.85 15.7-28.35 14.25-29.85 11.05-29.85L11.05-29.85 9.35-29.85 9.35-16.9 11-16.9Z" opacity="1" transform="matrix(1,0,0,1,0,0)" fill="#ffffff" class="wordmark-text-0" data-fill-palette-color="quaternary" id="text-0"></path></svg></g></svg></g></svg></g></svg></g><g></g></svg></g></svg></g></svg></g><defs></defs></svg><rect width="333.90454557049503" height="333.90454557049503" fill="none" stroke="none" visibility="hidden"></rect></g></svg></g></svg>